<?xml version="1.0" encoding="utf-8"?>
<!-- Generator: Adobe Illustrator 17.0.1, SVG Export Plug-In . SVG Version: 6.00 Build 0)  -->
<!DOCTYPE svg PUBLIC "-//W3C//DTD SVG 1.1//EN" "http://www.w3.org/Graphics/SVG/1.1/DTD/svg11.dtd">
<svg version="1.1" id="Layer_1" xmlns="http://www.w3.org/2000/svg" xmlns:xlink="http://www.w3.org/1999/xlink" x="0px" y="0px"
	 width="512px" height="512px" viewBox="0 0 512 512" enable-background="new 0 0 512 512" xml:space="preserve">
<g>
	<g>
		<path fill="#E63077" d="M156.742,227.046h48.997c0,0,8.698,25.562,9.9,30.422l60.236,168.565l54.185-131.44l-14.034-43.812
			c-3.643-11.559-7.021-23.735-7.021-23.735h47.546c0,0,8.155,26.781,9.385,31.644l51.736,164.289l78.167-195.601l9.256-0.332
			c0,0-8.935,22.512-24.762,63.297l-77.885,197.149h-12.156l-56.002-178.296l-73.02,178.296H249.71l-71.789-200.805
			C161.479,239.837,156.742,227.046,156.742,227.046z"/>
		<path fill="#F495B2" d="M102.833,355.756c18.807,0,48.119-15.047,68.414-34.575l6.773,15.005
			c-24.822,27.812-62.41,49.627-94.721,49.627c-62.392,0-93.202-62.418-80.467-138.337
			c15.081-79.691,76.687-137.539,129.315-137.539c39.839,0,61.638,29.316,54.86,64.652c-6.755,39.077-50.334,86.44-143.548,105.967
			C42.693,326.414,61.49,355.756,102.833,355.756z M149.448,175.324c2.992-19.525-3.764-35.321-22.559-35.321
			c-34.61,0-67.671,40.589-79.668,108.244c-0.756,4.524-1.528,8.272-2.288,12.027C111.109,244.474,143.418,205.391,149.448,175.324z
			"/>
		<polygon fill="#E63077" points="423.782,263.224 379.182,166.812 273.274,174.987 369.692,130.4 361.536,24.508 406.098,120.927 
			512,112.748 415.601,157.326 		"/>
	</g>
</g>
</svg>
